<svg xmlns="http://www.w3.org/2000/svg" width="620.45" height="99.395" viewBox="0 0 620.45 99.395">
  <g id="digitalarch-logo-white" transform="translate(-476.105 317.263)">
    <g id="digitalarch-logo" transform="translate(476.105 -317.263)">
      <path id="XMLID_208_" d="M101.078,99.177H-.5L42.661,10.8H57.68L21.08,85.66l73.2.079Z" transform="translate(0.5 -10.8)" fill="#f5f5f5"/>
      <path id="XMLID_206_" d="M63.4,10.8,35.258,68.506l10.355-.079L63.4,30.878,84.427,76.411H31.385L26.8,85.818H100Z" transform="translate(-5.22 -10.8)" fill="#afa0a1"/>
    </g>
    <path id="Path_64" data-name="Path 64" d="M25.488-48.691a19.833,19.833,0,0,1,8.965,1.89,17.842,17.842,0,0,1,6.768,6.46h.264q-.264-5.537-.264-10.854V-68.379h4.307V0H42.671l-1.1-7.295h-.352Q35.771.879,25.576.879q-9.888,0-15.117-6.152T5.229-23.2q0-12.393,5.186-18.94T25.488-48.691Zm0,3.955q-7.822,0-11.755,5.493T9.8-23.291q0,20.3,15.776,20.3,8.086,0,11.865-4.7T41.221-23.2v-.747q0-11.074-3.713-15.93T25.488-44.736ZM65.918,0H61.567V-47.769h4.351ZM60.952-61.04q0-4.219,2.769-4.219a2.459,2.459,0,0,1,2.131,1.1,5.4,5.4,0,0,1,.769,3.12,5.524,5.524,0,0,1-.769,3.12,2.432,2.432,0,0,1-2.131,1.143Q60.952-56.777,60.952-61.04ZM119.18-47.769v3.032l-9.888.615a16.873,16.873,0,0,1,3.955,10.811,14.59,14.59,0,0,1-4.592,11.184q-4.592,4.285-12.327,4.285a26.8,26.8,0,0,1-4.57-.264A11.369,11.369,0,0,0,87.8-14.9a6.477,6.477,0,0,0-1.362,3.911,3.62,3.62,0,0,0,1.736,3.34Q89.912-6.592,94-6.592h8.35q7.778,0,11.909,3.142t4.131,9.294a13.231,13.231,0,0,1-6.13,11.667q-6.13,4.109-17.468,4.109-9.009,0-13.953-3.472a11.154,11.154,0,0,1-4.944-9.668A11.472,11.472,0,0,1,78.948.308a15.825,15.825,0,0,1,8.284-4.438,8.423,8.423,0,0,1-3.45-2.615,6.22,6.22,0,0,1-1.3-3.889q0-4.79,6.108-8.437a13.616,13.616,0,0,1-6.5-5.383,15.365,15.365,0,0,1-2.329-8.416q0-7.163,4.548-11.492t12.283-4.329a22.643,22.643,0,0,1,7.295.923ZM80.508,8.086q0,9.844,14.634,9.844,18.809,0,18.809-12,0-4.307-2.944-6.24T101.47-2.241H93.647Q80.508-2.241,80.508,8.086Zm3.647-40.957q0,5.537,3.362,8.591A12.853,12.853,0,0,0,96.5-21.226q5.977,0,9.163-3.032t3.186-8.789q0-6.108-3.274-9.163t-9.163-3.054q-5.713,0-8.987,3.274T84.155-32.871ZM133.33,0h-4.351V-47.769h4.351Zm-4.966-61.04q0-4.219,2.769-4.219a2.459,2.459,0,0,1,2.131,1.1,5.4,5.4,0,0,1,.769,3.12,5.524,5.524,0,0,1-.769,3.12,2.432,2.432,0,0,1-2.131,1.143Q128.364-56.777,128.364-61.04ZM161.938-2.988a32.633,32.633,0,0,0,7.207-.7V-.176A23.058,23.058,0,0,1,161.851.879q-6.328,0-9.338-3.384T149.5-13.14v-30.85h-7.075v-2.549l7.075-1.978,2.2-10.811h2.241v11.558h14.019v3.779H153.94v30.234q0,5.493,1.934,8.13T161.938-2.988ZM208.477,0l-1.1-7.559h-.352a22.686,22.686,0,0,1-7.4,6.526A19.779,19.779,0,0,1,190.635.879q-7.031,0-10.942-3.6T175.781-12.7A12.31,12.31,0,0,1,181.6-23.555q5.823-3.867,16.853-4.087l9.1-.264v-3.164q0-6.812-2.769-10.283t-8.921-3.472a29.839,29.839,0,0,0-13.755,3.691l-1.626-3.779A36.4,36.4,0,0,1,196.04-48.6q7.866,0,11.755,4.087t3.889,12.744V0ZM190.9-3.076q7.646,0,12.063-4.373T207.378-19.6v-4.7l-8.35.352q-10.063.483-14.348,3.142T180.4-12.524a8.909,8.909,0,0,0,2.747,6.965Q185.889-3.076,190.9-3.076ZM231.5,0h-4.351V-68.379H231.5Zm15.117-3.428q0-4.307,3.516-4.307,3.6,0,3.6,4.307t-3.6,4.307Q246.621.879,246.621-3.428ZM308.32,0l-4.658-15.293H280.239L275.581,0H260.9l22.676-64.512h16.655L323,0Zm-7.91-26.719q-6.46-20.786-7.273-23.511t-1.165-4.307q-1.45,5.625-8.306,27.817Zm44.3-9.009H349.1q6.46,0,9.536-2.153t3.076-6.768q0-4.57-3.142-6.5t-9.734-1.934h-4.131Zm0,11.074V0H331.084V-64.248H349.8q13.1,0,19.38,4.768T375.469-45a17.046,17.046,0,0,1-3.12,10.085,20.645,20.645,0,0,1-8.833,6.921Q378.018-6.328,382.412,0H367.295L351.958-24.653Zm73.081-29.18q-7.69,0-11.909,5.779T401.66-31.948q0,21.489,16.128,21.489,6.768,0,16.392-3.384V-2.417a45.521,45.521,0,0,1-17.666,3.3q-14.019,0-21.445-8.5t-7.427-24.412a39.863,39.863,0,0,1,3.647-17.556A26.362,26.362,0,0,1,401.77-61.15a31.006,31.006,0,0,1,16.018-4.021A43.232,43.232,0,0,1,436.6-60.645L432.2-49.57a72.743,72.743,0,0,0-7.251-2.988A21.631,21.631,0,0,0,417.788-53.833ZM500.493,0H486.914V-27.729H461.47V0H447.847V-64.248H461.47v25.181h25.444V-64.248h13.579Z" transform="translate(596.062 -239.489)" fill="#f5f5f5"/>
  </g>
</svg>
