<?xml version="1.0" encoding="utf-8"?>
<!-- Generator: Adobe Illustrator 19.0.0, SVG Export Plug-In . SVG Version: 6.00 Build 0)  -->
<svg version="1.1" id="Capa_1" xmlns="http://www.w3.org/2000/svg" xmlns:xlink="http://www.w3.org/1999/xlink" x="0px" y="0px"
	 viewBox="68 -67.7 167.7 167.7" style="enable-background:new 68 -67.7 167.7 167.7;" xml:space="preserve">
<style type="text/css">
	.st0{fill:#F5F5F5;}
</style>
<g>
	<path class="st0" d="M151.8-67.3C105.5-67.3,68-29.8,68,16.5c0,41.5,30.2,75.9,69.8,82.6V34h-20.2V10.6h20.2V-6.7
		c0-20,12.2-31,30.1-31c8.6,0,15.9,0.6,18.1,0.9v20.9l-12.4,0c-9.7,0-11.6,4.6-11.6,11.4v14.9h23.2l-3,23.4H162v65.7
		c41.5-5,73.6-40.3,73.6-83.2C235.7-29.8,198.1-67.3,151.8-67.3z"/>
</g>
</svg>
