<?xml version="1.0" encoding="utf-8"?>
<!-- Generator: Adobe Illustrator 19.0.0, SVG Export Plug-In . SVG Version: 6.00 Build 0)  -->
<svg version="1.1" id="Layer_1" xmlns="http://www.w3.org/2000/svg" xmlns:xlink="http://www.w3.org/1999/xlink" x="0px" y="0px"
	 viewBox="240 -240 512 512" style="enable-background:new 240 -240 512 512;" xml:space="preserve">
<style type="text/css">
	.st0{fill:#F5F5F5;}
</style>
<path class="st0" d="M496-240c-141.4,0-256,114.6-256,256s114.6,256,256,256S752,157.4,752,16S637.4-240,496-240z M421.6,147h-62.3
	V-40.6h62.3V147z M390.4-66.2H390c-20.9,0-34.5-14.4-34.5-32.4c0-18.4,13.9-32.4,35.3-32.4s34.5,14,34.9,32.4
	C425.7-80.6,412.2-66.2,390.4-66.2z M646.4,147h-62.3V46.7c0-25.2-9-42.4-31.6-42.4c-17.2,0-27.5,11.6-32,22.8
	c-1.6,4-2.1,9.6-2.1,15.2V147h-62.3c0,0,0.8-170,0-187.6h62.3V-14c8.3-12.8,23.1-31,56.2-31c41,0,71.8,26.8,71.8,84.4V147z"/>
</svg>
