<?xml version="1.0" encoding="utf-8"?>
<!-- Generator: Adobe Illustrator 19.0.0, SVG Export Plug-In . SVG Version: 6.00 Build 0)  -->
<svg version="1.1" id="Capa_1" xmlns="http://www.w3.org/2000/svg" xmlns:xlink="http://www.w3.org/1999/xlink" x="0px" y="0px"
	 viewBox="111 -169.6 490.7 490.7" style="enable-background:new 111 -169.6 490.7 490.7;" xml:space="preserve">
<style type="text/css">
	.st0{fill:#F5F5F5;}
</style>
<g>
	<g>
		<path class="st0" d="M548.3-126.9h-128c-5.9,0-10.7,4.8-10.7,10.7s4.8,10.7,10.7,10.7h128c5.9,0,10.7-4.8,10.7-10.7
			S554.2-126.9,548.3-126.9z"/>
	</g>
</g>
<g>
	<g>
		<path class="st0" d="M555.9-123.8l-42.7-42.7c-4.2-4.2-10.9-4.2-15.1,0s-4.2,10.9,0,15.1l35.1,35.1l-35.1,35.1
			c-4.2,4.2-4.2,10.9,0,15.1c2.1,2.1,4.8,3.1,7.6,3.1s5.5-1,7.6-3.1l42.7-42.7C560-112.9,560-119.6,555.9-123.8z"/>
	</g>
</g>
<g>
	<g>
		<path class="st0" d="M271-126.9H143c-5.9,0-10.7,4.8-10.7,10.7s4.8,10.7,10.7,10.7h128c5.9,0,10.7-4.8,10.7-10.7
			S276.9-126.9,271-126.9z"/>
	</g>
</g>
<g>
	<g>
		<path class="st0" d="M158.1-116.3l35.1-35.1c4.2-4.2,4.2-10.9,0-15.1c-4.2-4.2-10.9-4.2-15.1,0l-42.7,42.7
			c-4.2,4.2-4.2,10.9,0,15.1L178.1-66c2.1,2.1,4.8,3.1,7.6,3.1s5.5-1,7.5-3.1c4.2-4.2,4.2-10.9,0-15.1L158.1-116.3z"/>
	</g>
</g>
<g>
	<g>
		<path class="st0" d="M537.7,43.7c-8.8,0-16.9,2.7-23.7,7.2c-5.8-16.6-21.7-28.5-40.3-28.5c-8.8,0-16.9,2.7-23.7,7.2
			C444.1,13,428.2,1.1,409.7,1.1c-7.8,0-15.1,2.1-21.3,5.7v-69.7c0-23.5-19.1-42.7-42.7-42.7S303-86.5,303-62.9v181.3l-37.1-27.8
			c-22-16.5-53.2-14.3-72.7,5.2c-12.5,12.5-12.5,32.8,0,45.2L345.1,293c18.1,18.1,42.3,28.1,67.9,28.1h50
			c64.7,0,117.3-52.6,117.3-117.3V86.4C580.3,62.9,561.2,43.7,537.7,43.7z M559,203.7c0,52.9-43.1,96-96,96h-50
			c-20,0-38.7-7.8-52.8-21.9L208.3,125.9c-4.2-4.2-4.2-10.9,0-15.1c6.6-6.6,15.4-10,24.3-10c7.2,0,14.5,2.2,20.5,6.8l54.1,40.6
			c3.2,2.4,7.6,2.8,11.2,1c3.6-1.8,5.9-5.5,5.9-9.5V-62.9c0-11.8,9.6-21.3,21.3-21.3S367-74.7,367-62.9v160
			c0,5.9,4.8,10.7,10.7,10.7s10.7-4.8,10.7-10.7V43.7c0-11.8,9.6-21.3,21.3-21.3S431,32,431,43.7v53.3c0,5.9,4.8,10.7,10.7,10.7
			s10.7-4.8,10.7-10.7v-32c0-11.8,9.6-21.3,21.3-21.3S495,53.3,495,65.1v32c0,5.9,4.8,10.7,10.7,10.7s10.7-4.8,10.7-10.7V86.4
			c0-11.8,9.6-21.3,21.3-21.3S559,74.6,559,86.4V203.7L559,203.7z"/>
	</g>
</g>
</svg>
