<?xml version="1.0" encoding="UTF-8" standalone="no"?>
<svg
   xmlns:dc="http://purl.org/dc/elements/1.1/"
   xmlns:cc="http://creativecommons.org/ns#"
   xmlns:rdf="http://www.w3.org/1999/02/22-rdf-syntax-ns#"
   xmlns:svg="http://www.w3.org/2000/svg"
   xmlns="http://www.w3.org/2000/svg"
   xmlns:sodipodi="http://sodipodi.sourceforge.net/DTD/sodipodi-0.dtd"
   xmlns:inkscape="http://www.inkscape.org/namespaces/inkscape"
   id="logoIGMBK"
   width="329.48349"
   height="48.805588"
   viewBox="0 0 329.4835 48.805588"
   version="1.1"
   sodipodi:docname="igmarchitekci.svg"
   inkscape:version="0.92.4 (5da689c313, 2019-01-14)">
  <metadata
     id="metadata12">
    <rdf:RDF>
      <cc:Work
         rdf:about="">
        <dc:format>image/svg+xml</dc:format>
        <dc:type
           rdf:resource="http://purl.org/dc/dcmitype/StillImage" />
        <dc:title></dc:title>
      </cc:Work>
    </rdf:RDF>
  </metadata>
  <defs
     id="defs10" />
  <sodipodi:namedview
     pagecolor="#ffffff"
     bordercolor="#666666"
     borderopacity="1"
     objecttolerance="10"
     gridtolerance="10"
     guidetolerance="10"
     inkscape:pageopacity="0"
     inkscape:pageshadow="2"
     inkscape:window-width="1920"
     inkscape:window-height="1017"
     id="namedview8"
     showgrid="false"
     fit-margin-top="0"
     fit-margin-left="0"
     fit-margin-right="0"
     fit-margin-bottom="0"
     inkscape:zoom="1.9348142"
     inkscape:cx="2.6981122"
     inkscape:cy="-48.159668"
     inkscape:window-x="-8"
     inkscape:window-y="-8"
     inkscape:window-maximized="1"
     inkscape:current-layer="logoIGMBK" />
  <g
     id="Group_135"
     data-name="Group 135"
     transform="scale(0.55733865)">
    <path
       id="Path_115"
       data-name="Path 115"
       d="m 299.434,1442.9 v 20.141 l -3.971,-2.185 -1.463,0.818 5.434,3.139 5.43,-3.139 v -15.635 z"
       transform="translate(-283.169,-1389.743)"
       inkscape:connector-curvature="0"
       style="fill:#2a2a2a;fill-rule:evenodd" />
    <path
       id="Path_116"
       data-name="Path 116"
       d="m 594.33,1613.3 v 20.325 l -4.027,-2.358 -1.4,0.777 5.43,3.139 5.4,-3.139 v -15.635 z"
       transform="translate(-567.205,-1553.866)"
       inkscape:connector-curvature="0"
       style="fill:#2a2a2a;fill-rule:evenodd" />
    <path
       id="Path_117"
       data-name="Path 117"
       d="m 5.434,46.908 5.4,3.139 V 65.682 L 5.434,68.8 0,65.682 V 21.912 L 37.96,0 75.92,21.912 v 43.77 l -37.96,21.887 -5.43,-3.139 1.3,-0.718 4.126,2.31 L 74.8,64.758 74.837,22.631 37.96,1.437 1.12,22.778 l 0.037,41.74 4.277,2.59 z"
       inkscape:connector-curvature="0"
       style="fill:#2a2a2a;fill-rule:evenodd" />
  </g>
  <path
     id="Path_127"
     data-name="Path 127"
     d="m 59.603064,11.033676 v 26.6 h -2.72 v -26.6 z m 29.88,14.08 v 7.2 a 13.172,13.172 0 0 1 -2.68,2.76 13.113,13.113 0 0 1 -1.84,1.16 13.357,13.357 0 0 1 -6.24,1.56 13.281,13.281 0 0 1 -6.84,-1.88 12.937,12.937 0 0 1 -4.96,-5.2 13.761,13.761 0 0 1 -1.2,-3.28 13.15,13.15 0 0 1 -0.36,-3.04 12.525,12.525 0 0 1 1.32,-5.68 13.313,13.313 0 0 1 2.3,-3.36 13.9,13.9 0 0 1 3.22,-2.56 13.2,13.2 0 0 1 6.56,-1.68 14.212,14.212 0 0 1 1.84,0.12 12.816,12.816 0 0 1 4.5,1.5 13.322,13.322 0 0 1 3.74,3.06 l -2.08,1.76 a 10.114,10.114 0 0 0 -4.2,-2.96 10.552,10.552 0 0 0 -3.88,-0.72 10.335,10.335 0 0 0 -4.96,1.2 11.091,11.091 0 0 0 -2.6,2 10.35,10.35 0 0 0 -1.88,2.68 10.257,10.257 0 0 0 -1.12,4.72 11.052,11.052 0 0 0 0.36,2.76 10.531,10.531 0 0 0 3.76,5.6 11.414,11.414 0 0 0 3.06,1.62 10.18,10.18 0 0 0 3.38,0.58 10.461,10.461 0 0 0 4.44,-0.98 10.67,10.67 0 0 0 3.64,-2.74 l 0.04,-3.48 h -3.88 v -2.72 z m 31.879996,-14.08 v 26.52 h -2.76 v -22.64 l -8.96,12.96 h -2.32 l -8.959996,-12.96 v 22.72 h -2.72 v -26.6 h 3.36 l 9.479996,13.72 9.48,-13.72 z m 5.76,28.52 h 17.44 v 2 h -17.44 z m 38.52,-11.72 h -9.36 l -3.44,9.8 h -2.92 l 9.32,-26.56 h 3.44 l 9.32,26.56 h -2.92 z m -0.88,-2.56 -3.8,-10.88 -3.8,10.88 z m 22.16,-4.68 a 4.582,4.582 0 0 0 -1.84,-0.4 4.424,4.424 0 0 0 -3.24,1.36 4.424,4.424 0 0 0 -1.36,3.24 v 12.84 h -2.72 v -12.84 a 7.155,7.155 0 0 1 1.14,-3.94 7.155,7.155 0 0 1 2.98,-2.66 l 0.08,-0.04 a 7.387,7.387 0 0 1 3.12,-0.68 7.215,7.215 0 0 1 4.56,1.56 z m 22.24,13.68 a 10.248,10.248 0 0 1 -3.42,2.62 9.806,9.806 0 0 1 -4.26,0.94 9.791,9.791 0 0 1 -5.04,-1.36 10.145,10.145 0 0 1 -3.68,-3.68 9.791,9.791 0 0 1 -1.36,-5.04 9.791,9.791 0 0 1 1.36,-5.04 10.145,10.145 0 0 1 3.68,-3.68 9.791,9.791 0 0 1 5.04,-1.36 9.806,9.806 0 0 1 4.26,0.94 10.248,10.248 0 0 1 3.42,2.62 l -2.44,1.4 a 7.1,7.1 0 0 0 -2.36,-1.62 7.265,7.265 0 0 0 -2.88,-0.58 7.173,7.173 0 0 0 -3.68,0.98 7.427,7.427 0 0 0 -2.68,2.66 7.063,7.063 0 0 0 -1,3.68 7.063,7.063 0 0 0 1,3.68 7.427,7.427 0 0 0 2.68,2.66 7.173,7.173 0 0 0 3.68,0.98 7.265,7.265 0 0 0 2.88,-0.58 7.1,7.1 0 0 0 2.36,-1.62 z m 13.72,-16.8 a 7.768,7.768 0 0 1 3.98,1.06 7.851,7.851 0 0 1 2.88,2.88 7.768,7.768 0 0 1 1.06,3.98 v 12.24 h -2.76 v -12.24 a 5.071,5.071 0 0 0 -0.7,-2.6 5.242,5.242 0 0 0 -1.88,-1.9 4.965,4.965 0 0 0 -2.58,-0.7 5.071,5.071 0 0 0 -2.6,0.7 5.194,5.194 0 0 0 -1.9,1.9 5.071,5.071 0 0 0 -0.7,2.6 v 12.24 h -2.76 v -26.68 h 2.76 v 8.76 a 6.082,6.082 0 0 1 2.3,-1.68 7.445,7.445 0 0 1 2.9,-0.56 z m 15.88,-5.4 a 1.693,1.693 0 0 1 1.24,0.52 1.693,1.693 0 0 1 0.52,1.24 1.74,1.74 0 0 1 -0.52,1.28 1.693,1.693 0 0 1 -1.24,0.52 1.74,1.74 0 0 1 -1.28,-0.52 1.74,1.74 0 0 1 -0.52,-1.28 1.693,1.693 0 0 1 0.52,-1.24 1.74,1.74 0 0 1 1.28,-0.52 z m 1.36,5.56 v 20 h -2.76 v -20 z m 15.56,2.72 h -3.32 v 17.28 h -2.76 v -17.28 h -3.32 v -2.72 h 3.32 v -6.6 h 2.76 v 6.6 h 3.32 z m 7.04,8.76 a 7.1,7.1 0 0 0 2.52,4.26 7.1,7.1 0 0 0 4.68,1.7 7.233,7.233 0 0 0 3.6,-0.92 7.249,7.249 0 0 0 2.64,-2.52 l 2.36,1.36 a 10.236,10.236 0 0 1 -3.64,3.52 9.728,9.728 0 0 1 -4.96,1.32 9.791,9.791 0 0 1 -5.04,-1.36 10.145,10.145 0 0 1 -3.68,-3.68 9.791,9.791 0 0 1 -1.36,-5.04 9.759,9.759 0 0 1 1.36,-5.06 10.194,10.194 0 0 1 3.68,-3.66 9.791,9.791 0 0 1 5.04,-1.36 9.791,9.791 0 0 1 5.04,1.36 10.194,10.194 0 0 1 3.68,3.66 9.759,9.759 0 0 1 1.36,5.06 q 0,0.48 -0.08,1.36 z m 7.2,-8.72 a 7.761,7.761 0 0 0 -3.44,0.82 7.242,7.242 0 0 0 -2.72,2.24 5.078,5.078 0 0 0 -1.04,3.06 h 14.4 a 5.078,5.078 0 0 0 -1.04,-3.06 7.281,7.281 0 0 0 -2.7,-2.24 7.719,7.719 0 0 0 -3.46,-0.82 z m 25.88,17.24 -7.28,-8.52 v 8.52 h -2.76 v -26.8 h 2.76 v 12.72 l 6.56,-5.92 h 4.12 l -9.56,8.6 9.8,11.4 z m 24.36,-3.36 a 10.248,10.248 0 0 1 -3.42,2.62 9.806,9.806 0 0 1 -4.26,0.94 9.791,9.791 0 0 1 -5.04,-1.36 10.145,10.145 0 0 1 -3.68,-3.68 9.791,9.791 0 0 1 -1.36,-5.04 9.791,9.791 0 0 1 1.36,-5.04 10.145,10.145 0 0 1 3.68,-3.68 9.791,9.791 0 0 1 5.04,-1.36 9.806,9.806 0 0 1 4.26,0.94 10.247,10.247 0 0 1 3.42,2.62 l -2.44,1.4 a 7.1,7.1 0 0 0 -2.36,-1.62 7.265,7.265 0 0 0 -2.88,-0.58 7.173,7.173 0 0 0 -3.68,0.98 7.427,7.427 0 0 0 -2.68,2.66 7.063,7.063 0 0 0 -1,3.68 7.063,7.063 0 0 0 1,3.68 7.427,7.427 0 0 0 2.68,2.66 7.173,7.173 0 0 0 3.68,0.98 7.265,7.265 0 0 0 2.88,-0.58 7.1,7.1 0 0 0 2.36,-1.62 z m 7.56,-22.2 a 1.693,1.693 0 0 1 1.24,0.52 1.693,1.693 0 0 1 0.52,1.24 1.74,1.74 0 0 1 -0.52,1.28 1.693,1.693 0 0 1 -1.24,0.52 1.74,1.74 0 0 1 -1.28,-0.52 1.74,1.74 0 0 1 -0.52,-1.28 1.693,1.693 0 0 1 0.52,-1.24 1.74,1.74 0 0 1 1.28,-0.52 z m 1.36,5.56 v 20 h -2.76 v -20 z"
     inkscape:connector-curvature="0"
     style="fill:#2a2a2a" />
  <g
     transform="scale(0.55733865)"
     data-name="Group 135"
     id="g828">
    <path
       style="fill:#2a2a2a;fill-rule:evenodd"
       inkscape:connector-curvature="0"
       transform="translate(-283.169,-1389.743)"
       d="m 299.434,1442.9 v 20.141 l -3.971,-2.185 -1.463,0.818 5.434,3.139 5.43,-3.139 v -15.635 z"
       data-name="Path 115"
       id="path822" />
    <path
       style="fill:#2a2a2a;fill-rule:evenodd"
       inkscape:connector-curvature="0"
       transform="translate(-567.205,-1553.866)"
       d="m 594.33,1613.3 v 20.325 l -4.027,-2.358 -1.4,0.777 5.43,3.139 5.4,-3.139 v -15.635 z"
       data-name="Path 116"
       id="path824" />
    <path
       style="fill:#2a2a2a;fill-rule:evenodd"
       inkscape:connector-curvature="0"
       d="m 5.434,46.908 5.4,3.139 V 65.682 L 5.434,68.8 0,65.682 V 21.912 L 37.96,0 75.92,21.912 v 43.77 l -37.96,21.887 -5.43,-3.139 1.3,-0.718 4.126,2.31 L 74.8,64.758 74.837,22.631 37.96,1.437 1.12,22.778 l 0.037,41.74 4.277,2.59 z"
       data-name="Path 117"
       id="path826" />
  </g>
  <path
     d="m 59.603064,11.033676 v 26.6 h -2.72 v -26.6 z m 29.88,14.08 v 7.2 a 13.172,13.172 0 0 1 -2.68,2.76 13.113,13.113 0 0 1 -1.84,1.16 13.357,13.357 0 0 1 -6.24,1.56 13.281,13.281 0 0 1 -6.84,-1.88 12.937,12.937 0 0 1 -4.96,-5.2 13.761,13.761 0 0 1 -1.2,-3.28 13.15,13.15 0 0 1 -0.36,-3.04 12.525,12.525 0 0 1 1.32,-5.68 13.313,13.313 0 0 1 2.3,-3.36 13.9,13.9 0 0 1 3.22,-2.56 13.2,13.2 0 0 1 6.56,-1.68 14.212,14.212 0 0 1 1.84,0.12 12.816,12.816 0 0 1 4.5,1.5 13.322,13.322 0 0 1 3.74,3.06 l -2.08,1.76 a 10.114,10.114 0 0 0 -4.2,-2.96 10.552,10.552 0 0 0 -3.88,-0.72 10.335,10.335 0 0 0 -4.96,1.2 11.091,11.091 0 0 0 -2.6,2 10.35,10.35 0 0 0 -1.88,2.68 10.257,10.257 0 0 0 -1.12,4.72 11.052,11.052 0 0 0 0.36,2.76 10.531,10.531 0 0 0 3.76,5.6 11.414,11.414 0 0 0 3.06,1.62 10.18,10.18 0 0 0 3.38,0.58 10.461,10.461 0 0 0 4.44,-0.98 10.67,10.67 0 0 0 3.64,-2.74 l 0.04,-3.48 h -3.88 v -2.72 z m 31.879996,-14.08 v 26.52 h -2.76 v -22.64 l -8.96,12.96 h -2.32 l -8.959996,-12.96 v 22.72 h -2.72 v -26.6 h 3.36 l 9.479996,13.72 9.48,-13.72 z m 5.76,28.52 h 17.44 v 2 h -17.44 z m 38.52,-11.72 h -9.36 l -3.44,9.8 h -2.92 l 9.32,-26.56 h 3.44 l 9.32,26.56 h -2.92 z m -0.88,-2.56 -3.8,-10.88 -3.8,10.88 z m 22.16,-4.68 a 4.582,4.582 0 0 0 -1.84,-0.4 4.424,4.424 0 0 0 -3.24,1.36 4.424,4.424 0 0 0 -1.36,3.24 v 12.84 h -2.72 v -12.84 a 7.155,7.155 0 0 1 1.14,-3.94 7.155,7.155 0 0 1 2.98,-2.66 l 0.08,-0.04 a 7.387,7.387 0 0 1 3.12,-0.68 7.215,7.215 0 0 1 4.56,1.56 z m 22.24,13.68 a 10.248,10.248 0 0 1 -3.42,2.62 9.806,9.806 0 0 1 -4.26,0.94 9.791,9.791 0 0 1 -5.04,-1.36 10.145,10.145 0 0 1 -3.68,-3.68 9.791,9.791 0 0 1 -1.36,-5.04 9.791,9.791 0 0 1 1.36,-5.04 10.145,10.145 0 0 1 3.68,-3.68 9.791,9.791 0 0 1 5.04,-1.36 9.806,9.806 0 0 1 4.26,0.94 10.248,10.248 0 0 1 3.42,2.62 l -2.44,1.4 a 7.1,7.1 0 0 0 -2.36,-1.62 7.265,7.265 0 0 0 -2.88,-0.58 7.173,7.173 0 0 0 -3.68,0.98 7.427,7.427 0 0 0 -2.68,2.66 7.063,7.063 0 0 0 -1,3.68 7.063,7.063 0 0 0 1,3.68 7.427,7.427 0 0 0 2.68,2.66 7.173,7.173 0 0 0 3.68,0.98 7.265,7.265 0 0 0 2.88,-0.58 7.1,7.1 0 0 0 2.36,-1.62 z m 13.72,-16.8 a 7.768,7.768 0 0 1 3.98,1.06 7.851,7.851 0 0 1 2.88,2.88 7.768,7.768 0 0 1 1.06,3.98 v 12.24 h -2.76 v -12.24 a 5.071,5.071 0 0 0 -0.7,-2.6 5.242,5.242 0 0 0 -1.88,-1.9 4.965,4.965 0 0 0 -2.58,-0.7 5.071,5.071 0 0 0 -2.6,0.7 5.194,5.194 0 0 0 -1.9,1.9 5.071,5.071 0 0 0 -0.7,2.6 v 12.24 h -2.76 v -26.68 h 2.76 v 8.76 a 6.082,6.082 0 0 1 2.3,-1.68 7.445,7.445 0 0 1 2.9,-0.56 z m 15.88,-5.4 a 1.693,1.693 0 0 1 1.24,0.52 1.693,1.693 0 0 1 0.52,1.24 1.74,1.74 0 0 1 -0.52,1.28 1.693,1.693 0 0 1 -1.24,0.52 1.74,1.74 0 0 1 -1.28,-0.52 1.74,1.74 0 0 1 -0.52,-1.28 1.693,1.693 0 0 1 0.52,-1.24 1.74,1.74 0 0 1 1.28,-0.52 z m 1.36,5.56 v 20 h -2.76 v -20 z m 15.56,2.72 h -3.32 v 17.28 h -2.76 v -17.28 h -3.32 v -2.72 h 3.32 v -6.6 h 2.76 v 6.6 h 3.32 z m 7.04,8.76 a 7.1,7.1 0 0 0 2.52,4.26 7.1,7.1 0 0 0 4.68,1.7 7.233,7.233 0 0 0 3.6,-0.92 7.249,7.249 0 0 0 2.64,-2.52 l 2.36,1.36 a 10.236,10.236 0 0 1 -3.64,3.52 9.728,9.728 0 0 1 -4.96,1.32 9.791,9.791 0 0 1 -5.04,-1.36 10.145,10.145 0 0 1 -3.68,-3.68 9.791,9.791 0 0 1 -1.36,-5.04 9.759,9.759 0 0 1 1.36,-5.06 10.194,10.194 0 0 1 3.68,-3.66 9.791,9.791 0 0 1 5.04,-1.36 9.791,9.791 0 0 1 5.04,1.36 10.194,10.194 0 0 1 3.68,3.66 9.759,9.759 0 0 1 1.36,5.06 q 0,0.48 -0.08,1.36 z m 7.2,-8.72 a 7.761,7.761 0 0 0 -3.44,0.82 7.242,7.242 0 0 0 -2.72,2.24 5.078,5.078 0 0 0 -1.04,3.06 h 14.4 a 5.078,5.078 0 0 0 -1.04,-3.06 7.281,7.281 0 0 0 -2.7,-2.24 7.719,7.719 0 0 0 -3.46,-0.82 z m 25.88,17.24 -7.28,-8.52 v 8.52 h -2.76 v -26.8 h 2.76 v 12.72 l 6.56,-5.92 h 4.12 l -9.56,8.6 9.8,11.4 z m 24.36,-3.36 a 10.248,10.248 0 0 1 -3.42,2.62 9.806,9.806 0 0 1 -4.26,0.94 9.791,9.791 0 0 1 -5.04,-1.36 10.145,10.145 0 0 1 -3.68,-3.68 9.791,9.791 0 0 1 -1.36,-5.04 9.791,9.791 0 0 1 1.36,-5.04 10.145,10.145 0 0 1 3.68,-3.68 9.791,9.791 0 0 1 5.04,-1.36 9.806,9.806 0 0 1 4.26,0.94 10.247,10.247 0 0 1 3.42,2.62 l -2.44,1.4 a 7.1,7.1 0 0 0 -2.36,-1.62 7.265,7.265 0 0 0 -2.88,-0.58 7.173,7.173 0 0 0 -3.68,0.98 7.427,7.427 0 0 0 -2.68,2.66 7.063,7.063 0 0 0 -1,3.68 7.063,7.063 0 0 0 1,3.68 7.427,7.427 0 0 0 2.68,2.66 7.173,7.173 0 0 0 3.68,0.98 7.265,7.265 0 0 0 2.88,-0.58 7.1,7.1 0 0 0 2.36,-1.62 z m 7.56,-22.2 a 1.693,1.693 0 0 1 1.24,0.52 1.693,1.693 0 0 1 0.52,1.24 1.74,1.74 0 0 1 -0.52,1.28 1.693,1.693 0 0 1 -1.24,0.52 1.74,1.74 0 0 1 -1.28,-0.52 1.74,1.74 0 0 1 -0.52,-1.28 1.693,1.693 0 0 1 0.52,-1.24 1.74,1.74 0 0 1 1.28,-0.52 z m 1.36,5.56 v 20 h -2.76 v -20 z"
     data-name="Path 127"
     id="path830"
     inkscape:connector-curvature="0"
     style="fill:#2a2a2a" />
</svg>
